<svg xmlns="http://www.w3.org/2000/svg" viewBox="0 0 64 64">
  <defs>
    <linearGradient id="g" x1="0" x2="1" y1="0" y2="1">
      <stop offset="0%" stop-color="#16a34a"/>
      <stop offset="100%" stop-color="#65a30d"/>
    </linearGradient>
  </defs>
  <rect width="64" height="64" rx="12" fill="url(#g)"/>
  <!-- Sakkat Soppu leaf + S monogram -->
  <path d="M20 40c4 0 10-4 12-8 2-4-2-8-8-8-3 0-6 1-8 2 2-6 8-10 14-10 10 0 16 6 14 14-2 8-10 16-20 16-2 0-4 0-6-1 2-3 6-5 10-5z" fill="#eaffea" opacity=".9"/>
  <path d="M38 18c-1 4-5 8-10 10 6 1 10 5 10 10 0 3-1 6-4 8 6-2 12-10 12-18 0-4-3-8-8-10z" fill="#f0fff4" opacity=".95"/>
</svg>
